<svg
                xmlns="http://www.w3.org/2000/svg"
                id="Capa_1"
                enable-background="new 0 0 512 512"
                height="51"
                viewBox="0 0 512 512"
                width="51"
              >
                <g>
                  <path
                    d="m324.5 269.5-227 190h-90c0 24.853 20.147 45 45 45h317z"
                    fill="#c4f3ff"
                  />
                  <path
                    d="m324.5 269.5v190c0 24.853 20.147 45 45 45h30v-235z"
                    fill="#acd2f6"
                  />
                  <path
                    d="m384.5 37.5v464.429c4.693 1.659 9.739 2.571 15 2.571 24.853 0 45-20.147 45-45v-452h-30z"
                    fill="#c4f3ff"
                  />
                  <path
                    d="m97.5 7.5v452h257c0 19.592 12.524 36.25 30 42.429 17.476-6.179 30-22.837 30-42.429v-452z"
                    fill="#fff"
                  />
                  <path
                    d="m474.5 369.5h-30l-30 30 30 30h30c16.569 0 30-13.431 30-30s-13.431-30-30-30z"
                    fill="#ff336d"
                  />
                  <path
                    d="m37.5 381.273-17.904 3.513c-6.893 1.354-12.096 7.424-12.096 14.714s5.203 13.36 12.096 14.713l17.904 3.513 20-18.227z"
                    fill="#4e4cd3"
                  />
                  <path
                    d="m97.5 369.5-60 11.773v36.454l60 11.773 30-30z"
                    fill="#ffe7b5"
                  />
                  <path d="m414.5 369.5-30 30 30 30h30v-60z" fill="#fff" />
                  <path d="m97.5 399.5v30h317v-30l-158.5-20z" fill="#ffb44e" />
                  <path d="m97.5 369.5h317v30h-317z" fill="#ffd06a" />
                  <path d="m334.196 178.803c1.465 1.464 3.385 2.197 5.304 2.197s3.839-.732 5.304-2.197l30-30c2.929-2.929 2.929-7.678 0-10.606-2.93-2.929-7.678-2.929-10.607 0l-24.697 24.697-9.696-9.697c-2.93-2.929-7.678-2.929-10.607 0s-2.929 7.678 0 10.606z" />
                  <path d="m334.196 118.803c1.465 1.464 3.385 2.197 5.304 2.197s3.839-.732 5.304-2.197l30-30c2.929-2.929 2.929-7.678 0-10.606-2.93-2.929-7.678-2.929-10.607 0l-24.697 24.697-9.696-9.697c-2.93-2.929-7.678-2.929-10.607 0s-2.929 7.678 0 10.606z" />
                  <path d="m172.5 166h122c4.143 0 7.5-3.358 7.5-7.5s-3.357-7.5-7.5-7.5h-122c-4.143 0-7.5 3.358-7.5 7.5s3.357 7.5 7.5 7.5z" />
                  <path d="m334.196 238.803c1.465 1.464 3.385 2.197 5.304 2.197s3.839-.732 5.304-2.197l30-30c2.929-2.929 2.929-7.678 0-10.606-2.93-2.929-7.678-2.929-10.607 0l-24.697 24.697-9.696-9.697c-2.93-2.929-7.678-2.929-10.607 0s-2.929 7.678 0 10.606z" />
                  <path d="m334.196 298.803c1.465 1.464 3.385 2.197 5.304 2.197s3.839-.732 5.304-2.197l30-30c2.929-2.929 2.929-7.678 0-10.606-2.93-2.929-7.678-2.929-10.607 0l-24.697 24.697-9.696-9.697c-2.93-2.929-7.678-2.929-10.607 0s-2.929 7.678 0 10.606z" />
                  <path d="m172.5 106h122c4.143 0 7.5-3.358 7.5-7.5s-3.357-7.5-7.5-7.5h-122c-4.143 0-7.5 3.358-7.5 7.5s3.357 7.5 7.5 7.5z" />
                  <path d="m172.5 226h122c4.143 0 7.5-3.358 7.5-7.5s-3.357-7.5-7.5-7.5h-122c-4.143 0-7.5 3.358-7.5 7.5s3.357 7.5 7.5 7.5z" />
                  <path d="m172.5 286h122c4.143 0 7.5-3.358 7.5-7.5s-3.357-7.5-7.5-7.5h-122c-4.143 0-7.5 3.358-7.5 7.5s3.357 7.5 7.5 7.5z" />
                  <path d="m474.5 362h-22.5v-354.5c0-4.142-3.357-7.5-7.5-7.5h-347c-4.143 0-7.5 3.358-7.5 7.5v355.828l-71.849 14.099c-10.517 2.065-18.151 11.348-18.151 22.073s7.634 20.008 18.151 22.073l77.904 15.287c.476.093.96.14 1.444.14h339.501v22.5c0 20.678-16.822 37.5-37.5 37.5s-37.5-16.822-37.5-37.5c0-4.142-3.357-7.5-7.5-7.5h-347c-4.143 0-7.5 3.358-7.5 7.5 0 28.949 23.552 52.5 52.5 52.5h347c28.948 0 52.5-23.551 52.5-52.5v-22.5h22.5c20.678 0 37.5-16.822 37.5-37.5s-16.822-37.5-37.5-37.5zm-422 135c-18.109 0-33.262-12.905-36.747-30h331.781c1.677 11.673 7.208 22.118 15.259 30zm384.5-482v347h-332v-347zm-332 392h302v15h-302zm302-15h-302v-15h302zm-317 28.385-45-8.83v-24.111l45-8.83zm-75-20.885c0-3.574 2.54-6.667 6.04-7.354l8.96-1.758v18.224l-8.96-1.758c-3.5-.687-6.04-3.78-6.04-7.354zm407 22.5v-45h15v45zm52.5 0h-22.5v-45h22.5c12.406 0 22.5 10.093 22.5 22.5s-10.094 22.5-22.5 22.5z" />
                </g>
              </svg>